HIERARCHY
ROOT hip
{
  OFFSET 0 0 0
  CHANNELS 6 Xposition Yposition Zposition Zrotation Yrotation Xrotation
  JOINT abdomen
  {
    OFFSET 0 20.6881 -0.73152
    CHANNELS 3 Zrotation Xrotation Yrotation
    JOINT chest
    {
      OFFSET 0 11.7043 -0.48768
      CHANNELS 3 Zrotation Xrotation Yrotation
      JOINT neck
      {
        OFFSET 0 22.1894 -2.19456
        CHANNELS 3 Zrotation Xrotation Yrotation
        JOINT head
        {
          OFFSET -0.24384 7.07133 1.2192
          CHANNELS 3 Zrotation Xrotation Yrotation
          JOINT leftEye
          {
            OFFSET 4.14528 8.04674 8.04672
            CHANNELS 3 Zrotation Xrotation Yrotation
            End Site
            {
              OFFSET 1 0 0
            }
          }
          JOINT rightEye
          {
            OFFSET -3.6576 8.04674 8.04672
            CHANNELS 3 Zrotation Xrotation Yrotation
            End Site
            {
              OFFSET 1 0 0
            }
          }
        }
      }
      JOINT rCollar
      {
        OFFSET -2.68224 19.2634 -4.8768
        CHANNELS 3 Zrotation Xrotation Yrotation
        JOINT rShldr
        {
          OFFSET -8.77824 -1.95073 1.46304
          CHANNELS 3 Zrotation Xrotation Yrotation
          JOINT rForeArm
          {
            OFFSET -28.1742 -1.7115 0.48768
            CHANNELS 3 Zrotation Xrotation Yrotation
            JOINT rHand
            {
              OFFSET -22.5879 0.773209 7.07136
              CHANNELS 3 Zrotation Xrotation Yrotation
              JOINT rThumb1
              {
                OFFSET -1.2192 -0.487915 3.41376
                CHANNELS 3 Zrotation Xrotation Yrotation
                JOINT rThumb2
                {
                  OFFSET -3.37035 -0.52449 3.41376
                  CHANNELS 3 Zrotation Xrotation Yrotation
                  End Site
                  {
                    OFFSET -1.78271 -1.18214 1.43049
                  }
                }
              }
              JOINT rIndex1
              {
                OFFSET -7.75947 0.938293 5.60832
                CHANNELS 3 Zrotation Xrotation Yrotation
                JOINT rIndex2
                {
                  OFFSET -2.54057 -0.884171 1.56538
                  CHANNELS 3 Zrotation Xrotation Yrotation
                  End Site
                  {
                    OFFSET -1.62519 -0.234802 1.16502
                  }
                }
              }
              JOINT rMid1
              {
                OFFSET -8.24714 1.18213 3.41376
                CHANNELS 3 Zrotation Xrotation Yrotation
                JOINT rMid2
                {
                  OFFSET -3.10165 -0.590103 1.0647
                  CHANNELS 3 Zrotation Xrotation Yrotation
                  End Site
                  {
                    OFFSET -2.48547 -0.328903 0.83742
                  }
                }
              }
              JOINT rRing1
              {
                OFFSET -8.82822 0.546677 1.51678
                CHANNELS 3 Zrotation Xrotation Yrotation
                JOINT rRing2
                {
                  OFFSET -2.60934 -0.819778 -0.0198488
                  CHANNELS 3 Zrotation Xrotation Yrotation
                  End Site
                  {
                    OFFSET -2.33842 -0.294052 0.168128
                  }
                }
              }
              JOINT rPinky1
              {
                OFFSET -8.27202 -0.0477905 -0.4584
                CHANNELS 3 Zrotation Xrotation Yrotation
                JOINT rPinky2
                {
                  OFFSET -1.82734 -0.647385 -0.700984
                  CHANNELS 3 Zrotation Xrotation Yrotation
                  End Site
                  {
                    OFFSET -1.69225 -0.51767 -0.607171
                  }
                }
              }
            }
          }
        }
      }
      JOINT lCollar
      {
        OFFSET 2.68224 19.2634 -4.8768
        CHANNELS 3 Zrotation Xrotation Yrotation
        JOINT lShldr
        {
          OFFSET 8.77824 -1.95073 1.46304
          CHANNELS 3 Zrotation Xrotation Yrotation
          JOINT lForeArm
          {
            OFFSET 28.1742 -1.7115 0.48768
            CHANNELS 3 Zrotation Xrotation Yrotation
            JOINT lHand
            {
              OFFSET 22.5879 0.773209 7.07136
              CHANNELS 3 Zrotation Xrotation Yrotation
              JOINT lThumb1
              {
                OFFSET 1.2192 -0.487915 3.41376
                CHANNELS 3 Zrotation Xrotation Yrotation
                JOINT lThumb2
                {
                  OFFSET 3.37035 -0.52449 3.41376
                  CHANNELS 3 Zrotation Xrotation Yrotation
                  End Site
                  {
                    OFFSET 1.78271 -1.18214 1.43049
                  }
                }
              }
              JOINT lIndex1
              {
                OFFSET 7.75947 0.938293 5.60832
                CHANNELS 3 Zrotation Xrotation Yrotation
                JOINT lIndex2
                {
                  OFFSET 2.54057 -0.884171 1.56538
                  CHANNELS 3 Zrotation Xrotation Yrotation
                  End Site
                  {
                    OFFSET 1.62519 -0.234802 1.16502
                  }
                }
              }
              JOINT lMid1
              {
                OFFSET 8.24714 1.18213 3.41376
                CHANNELS 3 Zrotation Xrotation Yrotation
                JOINT lMid2
                {
                  OFFSET 3.10165 -0.590103 1.0647
                  CHANNELS 3 Zrotation Xrotation Yrotation
                  End Site
                  {
                    OFFSET 2.48547 -0.328903 0.83742
                  }
                }
              }
              JOINT lRing1
              {
                OFFSET 8.82822 0.546677 1.51678
                CHANNELS 3 Zrotation Xrotation Yrotation
                JOINT lRing2
                {
                  OFFSET 2.60934 -0.819778 -0.0198488
                  CHANNELS 3 Zrotation Xrotation Yrotation
                  End Site
                  {
                    OFFSET 2.33842 -0.294052 0.168128
                  }
                }
              }
              JOINT lPinky1
              {
                OFFSET 8.27202 -0.0477905 -0.4584
                CHANNELS 3 Zrotation Xrotation Yrotation
                JOINT lPinky2
                {
                  OFFSET 1.82734 -0.647385 -0.700984
                  CHANNELS 3 Zrotation Xrotation Yrotation
                  End Site
                  {
                    OFFSET 1.69225 -0.51767 -0.607171
                  }
                }
              }
            }
          }
        }
      }
    }
  }
  JOINT rButtock
  {
    OFFSET -8.77824 4.35084 1.2192
    CHANNELS 3 Zrotation Xrotation Yrotation
    JOINT rThigh
    {
      OFFSET 0 -1.70687 -2.19456
      CHANNELS 3 Zrotation Xrotation Yrotation
      JOINT rShin
      {
        OFFSET 0 -36.8199 0.73152
        CHANNELS 3 Zrotation Xrotation Yrotation
        JOINT rFoot
        {
          OFFSET 0.73152 -45.1104 -5.12064
          CHANNELS 3 Zrotation Xrotation Yrotation
          End Site
          {
            OFFSET -1.1221 -3.69964 12.103
          }
        }
      }
    }
  }
  JOINT lButtock
  {
    OFFSET 8.77824 4.35084 1.2192
    CHANNELS 3 Zrotation Xrotation Yrotation
    JOINT lThigh
    {
      OFFSET 0 -1.70687 -2.19456
      CHANNELS 3 Zrotation Xrotation Yrotation
      JOINT lShin
      {
        OFFSET 0 -36.8199 0.73152
        CHANNELS 3 Zrotation Xrotation Yrotation
        JOINT lFoot
        {
          OFFSET -0.73152 -45.1104 -5.12064
          CHANNELS 3 Zrotation Xrotation Yrotation
          End Site
          {
            OFFSET 1.1221 -3.69964 12.103
          }
        }
      }
    }
  }
}
MOTION
Frames:	5
Frame Time:	0.00833333
278.391 80.8821 -34.5966 532.955 -105.589 1273.21 -2.03408 4.31342 -0.614752 0.183964 1.57337 -0.245699 -5.63009 13.2639 -7.9263 21.2285 -45.8453 -8.34054 -0.0 0.0 0.0 -0.0 0.0 0.0 4.31148e-14 6.30982e-13 1.4068e-13 82.0017 37.5614 -7.07294 -20.5608 -13.7347 40.0556 -0.308008 -15.5963 -2.24831 -5.8666e-10 2.27283e-10 -2.54071e-10 -1.00562e-09 3.93597e-10 -4.45197e-10 -5.86651e-10 2.2728e-10 -2.54088e-10 7.73091 5.47488 0.417314 -5.86658e-10 2.27278e-10 -2.54076e-10 2.90554 0.965183 0.102902 -5.86655e-10 2.27276e-10 -2.54071e-10 10.2786 0.731801 0.0259123 -5.86663e-10 2.27279e-10 -2.54065e-10 2.22167 -0.733487 -0.20892 4.30908e-14 6.30958e-13 1.4049e-13 -67.8654 32.0124 -0.472871 22.1021 -15.9107 -44.0687 0.557704 -20.7278 3.04866 -6.53304e-10 2.04292e-09 1.25929e-09 -1.15363e-09 3.53032e-09 2.16881e-09 -6.53305e-10 2.04293e-09 1.2593e-09 -7.73091 5.47488 -0.417314 -6.53301e-10 2.04293e-09 1.2593e-09 -2.90554 0.965183 -0.102902 -6.5331e-10 2.04292e-09 1.25929e-09 -10.2786 0.731801 -0.0259123 -6.533e-10 2.04292e-09 1.25928e-09 -2.22167 -0.733487 0.20892 -2.03217e-16 0.0 -3.88251e-19 3.63527 -26.2426 2.98889 -0.379738 43.103 0.940231 -5.99414 -24.367 -11.2623 2.03217e-16 0.0 3.88251e-19 0.667282 -17.6771 -1.16165 0.197772 34.5765 -0.686262 3.55933 -19.4351 7.66077
278.49 80.8084 -34.491 532.968 -105.291 1273.16 -1.94389 4.49855 -0.531869 0.162909 1.5799 -0.222496 -5.55496 13.1017 -7.83788 21.065 -46.2073 -8.18208 -0.0 0.0 0.0 -0.0 0.0 0.0 -4.07159e-15 4.13552e-13 1.78384e-13 82.3582 37.1323 -7.05661 -20.4216 -13.5526 39.7087 -0.315403 -15.7773 -2.27576 -3.16671e-10 3.17264e-10 -2.88906e-10 -5.382e-10 5.49221e-10 -5.0245e-10 -3.16665e-10 3.17263e-10 -2.88919e-10 7.73091 5.47488 0.417314 -3.16671e-10 3.17263e-10 -2.88909e-10 2.90554 0.965183 0.102902 -3.16665e-10 3.17261e-10 -2.88905e-10 10.2786 0.731801 0.0259123 -3.16675e-10 3.17264e-10 -2.889e-10 2.22167 -0.733487 -0.20892 -4.07258e-15 4.13541e-13 1.78207e-13 -68.2997 31.9342 -0.677584 22.2276 -16.1027 -44.41 0.56841 -20.9153 3.07886 -3.93181e-10 2.34887e-09 1.42526e-09 -7.08272e-10 4.06417e-09 2.46006e-09 -3.93182e-10 2.34888e-09 1.42527e-09 -7.73091 5.47488 -0.417314 -3.93179e-10 2.34888e-09 1.42526e-09 -2.90554 0.965183 -0.102902 -3.93186e-10 2.34887e-09 1.42526e-09 -10.2786 0.731801 -0.0259123 -3.93177e-10 2.34887e-09 1.42525e-09 -2.22167 -0.733487 0.20892 -2.03217e-16 0.0 -3.88251e-19 3.53289 -26.3906 3.10046 -0.384986 43.3498 0.94901 -6.05181 -24.5535 -11.3139 2.03217e-16 0.0 3.88251e-19 0.43197 -17.8191 -1.20805 0.202371 34.8852 -0.696742 3.75204 -19.4137 8.13198
278.583 80.7296 -34.3818 533.03 -104.935 1273.05 -1.88473 4.70567 -0.419899 0.147072 1.58224 -0.191709 -5.47251 12.932 -7.74505 20.9126 -46.5563 -8.01331 -0.0 0.0 0.0 -0.0 0.0 0.0 -4.5842e-14 1.32573e-13 1.81401e-13 82.6644 36.7497 -6.96264 -20.2726 -13.3593 39.3432 -0.32133 -15.9212 -2.29762 -2.83898e-11 3.89284e-10 -3.08575e-10 -3.98053e-11 6.73821e-10 -5.33475e-10 -2.83868e-11 3.89283e-10 -3.08584e-10 7.73091 5.47488 0.417314 -2.83913e-11 3.89287e-10 -3.08576e-10 2.90554 0.965183 0.102902 -2.83831e-11 3.89283e-10 -3.08574e-10 10.2786 0.731801 0.0259123 -2.8395e-11 3.89286e-10 -3.0857e-10 2.22167 -0.733487 -0.20892 -4.5821e-14 1.32575e-13 1.81238e-13 -68.8018 31.8512 -0.857834 22.3354 -16.2696 -44.7045 0.577048 -21.065 3.10302 -9.61935e-11 2.42097e-09 1.46111e-09 -1.96526e-10 4.19334e-09 2.52676e-09 -9.61933e-11 2.42097e-09 1.46112e-09 -7.73091 5.47488 -0.417314 -9.61908e-11 2.42098e-09 1.46112e-09 -2.90554 0.965183 -0.102902 -9.6197e-11 2.42097e-09 1.46111e-09 -10.2786 0.731801 -0.0259123 -9.61886e-11 2.42097e-09 1.4611e-09 -2.22167 -0.733487 0.20892 -2.03217e-16 0.0 -3.88251e-19 3.41658 -26.5502 3.21718 -0.391129 43.6242 0.957709 -6.06481 -24.7208 -11.2839 2.03217e-16 0.0 3.88251e-19 0.194398 -17.937 -1.2158 0.206892 35.1887 -0.707354 3.93858 -19.4018 8.5843
278.668 80.6448 -34.2696 533.14 -104.522 1272.88 -1.8709 4.9221 -0.283359 0.145905 1.57337 -0.15488 -5.38911 12.7727 -7.65081 20.7832 -46.8795 -7.83682 -0.0 0.0 0.0 -0.0 0.0 0.0 -6.60155e-14 -1.4134e-13 1.38404e-13 82.9411 36.4382 -6.8533 -20.1354 -13.183 39.0096 -0.325455 -16.0195 -2.31258 1.75094e-10 4.13081e-10 -3.29505e-10 3.11533e-10 7.1511e-10 -5.67721e-10 1.75095e-10 4.13081e-10 -3.29512e-10 7.73091 5.47488 0.417314 1.75092e-10 4.13086e-10 -3.29505e-10 2.90554 0.965183 0.102902 1.75101e-10 4.13081e-10 -3.29505e-10 10.2786 0.731801 0.0259123 1.75088e-10 4.13084e-10 -3.29502e-10 2.22167 -0.733487 -0.20892 -6.5982e-14 -1.41331e-13 1.38255e-13 -69.3618 31.7871 -1.00708 22.4224 -16.4049 -44.9469 0.582187 -21.1529 3.11724 1.48535e-10 2.19089e-09 1.30977e-09 2.28961e-10 3.79814e-09 2.26873e-09 1.48535e-10 2.19089e-09 1.30977e-09 -7.73091 5.47488 -0.417314 1.48538e-10 2.1909e-09 1.30977e-09 -2.90554 0.965183 -0.102902 1.48532e-10 2.19089e-09 1.30977e-09 -10.2786 0.731801 -0.0259123 1.4854e-10 2.19089e-09 1.30976e-09 -2.22167 -0.733487 0.20892 -2.03217e-16 0.0 -3.88251e-19 3.28849 -26.7265 3.35004 -0.398424 43.9331 0.966568 -6.03589 -24.8502 -11.1848 2.03217e-16 0.0 3.88251e-19 -0.0468041 -18.0262 -1.17826 0.211129 35.4764 -0.717831 4.11665 -19.4007 9.01196
278.742 80.5558 -34.1544 533.286 -104.055 1272.66 -1.91127 5.15687 -0.109424 0.16266 1.54882 -0.108559 -5.30705 12.6303 -7.55546 20.688 -47.1864 -7.64813 -0.0 0.0 0.0 -0.0 0.0 0.0 -4.9187e-14 -4.43492e-13 3.97221e-15 83.1846 36.2149 -6.72635 -20.0101 -13.0245 38.7045 -0.327905 -16.076 -2.3212 2.39913e-10 3.69524e-10 -3.65376e-10 4.22521e-10 6.40167e-10 -6.29577e-10 2.39914e-10 3.69524e-10 -3.65382e-10 7.73091 5.47488 0.417314 2.39911e-10 3.69529e-10 -3.65377e-10 2.90554 0.965183 0.102902 2.3992e-10 3.69524e-10 -3.65378e-10 10.2786 0.731801 0.0259123 2.39909e-10 3.69527e-10 -3.65375e-10 2.22167 -0.733487 -0.20892 -4.91514e-14 -4.43484e-13 3.83787e-15 -69.9965 31.7348 -1.11687 22.4902 -16.5107 -45.138 0.584054 -21.1829 3.12215 3.322e-10 1.4174e-09 8.25265e-10 5.56097e-10 2.46045e-09 1.43325e-09 3.32198e-10 1.4174e-09 8.2527e-10 -7.73091 5.47488 -0.417314 3.32202e-10 1.41741e-09 8.25266e-10 -2.90554 0.965183 -0.102902 3.32196e-10 1.4174e-09 8.25261e-10 -10.2786 0.731801 -0.0259123 3.32204e-10 1.4174e-09 8.25254e-10 -2.22167 -0.733487 0.20892 -2.03217e-16 0.0 -3.88251e-19 3.14754 -26.9181 3.50724 -0.407016 44.2795 0.975413 -5.9524 -24.9353 -10.9942 2.03217e-16 0.0 3.88251e-19 -0.296149 -18.0764 -1.09137 0.214967 35.7437 -0.728124 4.28812 -19.4096 9.41921
